<svg xmlns="http://www.w3.org/2000/svg" viewBox="0 0 300 100" class="font">
  <rect fill="#f8680c" x="0" y="0" width="300" height="100"
    class="logo-background-square"></rect>
  <g id="bea0bcfd-9551-49dc-9623-c229e31e08c3" fill="#e7e7e6"
    transform="matrix(3.9,0,0,3.9,35.7,128.2)">
    <path
      d="M 10.2 -14.9 L 10.2 -14.9 L 10.2 -20.9 C 10.2 -21.1 9.9 -21.3 9.7 -21.3 C 9.5 -21.3 9.4 -21.2 9.3 -21.1 L 6.9 -17.7 L 4.5 -21.1 C 4.3 -21.3 4 -21.4 3.8 -21.2 C 3.7 -21.1 3.6 -21 3.6 -20.9 L 3.6 -20.9 L 3.6 -14.9 C 3.6 -14.7 3.8 -14.5 4.1 -14.5 C 4.4 -14.5 4.6 -14.7 4.6 -14.9 L 4.6 -19.3 L 6.5 -16.6 C 6.5 -16.5 6.6 -16.5 6.6 -16.5 C 6.8 -16.3 7.1 -16.4 7.3 -16.6 L 9.2 -19.3 L 9.2 -14.9 C 9.2 -14.7 9.4 -14.5 9.7 -14.5 C 9.9 -14.5 10.2 -14.7 10.2 -14.9 Z M 2.7 -14.9 L 2.7 -14.9 L 2.7 -24.4 C 2.7 -24.7 2.5 -24.9 2.2 -24.9 C 1.9 -24.9 1.7 -24.7 1.7 -24.4 L 1.7 -14.9 C 1.7 -14.7 1.9 -14.5 2.2 -14.5 C 2.5 -14.5 2.7 -14.7 2.7 -14.9 Z M 12 -14.9 L 12 -14.9 L 12 -24.4 C 12 -24.7 11.8 -24.9 11.6 -24.9 C 11.3 -24.9 11.1 -24.7 11.1 -24.4 L 11.1 -14.9 C 11.1 -14.7 11.3 -14.5 11.6 -14.5 C 11.8 -14.5 12 -14.7 12 -14.9 Z M 9.5 -24.7 L 9.5 -24.7 L 6.9 -21 L 4.3 -24.7 C 4.2 -24.9 3.9 -25 3.6 -24.8 C 3.4 -24.7 3.4 -24.4 3.5 -24.2 L 6.5 -19.9 C 6.5 -19.9 6.6 -19.8 6.6 -19.8 C 6.8 -19.6 7.1 -19.7 7.3 -19.9 L 10.3 -24.2 C 10.4 -24.4 10.3 -24.7 10.1 -24.8 C 9.9 -25 9.6 -24.9 9.5 -24.7 Z M 24.5 -21.2 L 24.5 -21.2 C 24.1 -22.3 23.4 -23.3 22.5 -23.9 C 21.6 -24.6 20.5 -25 19.3 -25 C 12.2 -25 12.2 -14.3 19.3 -14.3 C 20.5 -14.3 21.6 -14.7 22.5 -15.3 C 23.4 -16 24.1 -16.9 24.5 -18 C 24.5 -18.3 24.4 -18.6 24.2 -18.6 C 23.9 -18.7 23.6 -18.6 23.5 -18.3 C 23.2 -17.4 22.7 -16.6 21.9 -16.1 C 21.2 -15.5 20.3 -15.2 19.3 -15.2 C 13.4 -15.2 13.4 -24 19.3 -24 C 20.3 -24 21.2 -23.7 21.9 -23.2 C 22.7 -22.6 23.2 -21.8 23.5 -20.9 C 23.6 -20.7 23.9 -20.6 24.2 -20.6 C 24.4 -20.7 24.5 -21 24.5 -21.2 Z M 16.4 -17.9 L 16.4 -17.9 C 16.7 -17.4 17.1 -17 17.6 -16.7 C 18.1 -16.4 18.7 -16.2 19.3 -16.2 C 20.2 -16.2 21.1 -16.6 21.7 -17.2 C 22.3 -17.8 22.7 -18.7 22.7 -19.6 C 22.7 -20.6 22.3 -21.4 21.7 -22 C 21.1 -22.6 20.2 -23 19.3 -23 C 18.7 -23 18.1 -22.9 17.6 -22.6 C 17.1 -22.3 16.7 -21.8 16.4 -21.3 C 16.3 -21.1 16.4 -20.8 16.6 -20.7 C 16.8 -20.5 17.1 -20.6 17.2 -20.9 C 17.4 -21.2 17.7 -21.5 18.1 -21.7 C 18.5 -22 18.9 -22.1 19.3 -22.1 C 20 -22.1 20.6 -21.8 21 -21.3 C 21.4 -20.9 21.7 -20.3 21.7 -19.6 C 21.7 -18.9 21.4 -18.3 21 -17.9 C 20.6 -17.4 20 -17.2 19.3 -17.2 C 18.9 -17.2 18.5 -17.3 18.1 -17.5 C 17.7 -17.7 17.4 -18 17.2 -18.4 C 17.1 -18.6 16.8 -18.7 16.6 -18.6 C 16.4 -18.4 16.3 -18.2 16.4 -17.9 Z M 36.5 -21.2 L 36.5 -21.2 C 36.2 -22.3 35.5 -23.3 34.6 -23.9 C 33.6 -24.6 32.5 -25 31.3 -25 C 24.2 -25 24.2 -14.3 31.3 -14.3 C 32.5 -14.3 33.6 -14.7 34.6 -15.3 C 35.5 -16 36.2 -16.9 36.5 -18 C 36.6 -18.3 36.5 -18.6 36.2 -18.6 C 36 -18.7 35.7 -18.6 35.6 -18.3 C 35.3 -17.4 34.7 -16.6 34 -16.1 C 33.2 -15.5 32.3 -15.2 31.3 -15.2 C 25.5 -15.2 25.5 -24 31.3 -24 C 32.3 -24 33.2 -23.7 34 -23.2 C 34.7 -22.6 35.3 -21.8 35.6 -20.9 C 35.7 -20.7 36 -20.6 36.2 -20.6 C 36.5 -20.7 36.6 -21 36.5 -21.2 Z M 28.5 -17.9 L 28.5 -17.9 C 28.7 -17.4 29.2 -17 29.7 -16.7 C 30.2 -16.4 30.8 -16.2 31.3 -16.2 C 32.3 -16.2 33.1 -16.6 33.7 -17.2 C 34.3 -17.8 34.7 -18.7 34.7 -19.6 C 34.7 -20.6 34.3 -21.4 33.7 -22 C 33.1 -22.6 32.3 -23 31.3 -23 C 30.8 -23 30.2 -22.9 29.7 -22.6 C 29.2 -22.3 28.7 -21.8 28.5 -21.3 C 28.3 -21.1 28.4 -20.8 28.6 -20.7 C 28.9 -20.5 29.2 -20.6 29.3 -20.9 C 29.5 -21.2 29.8 -21.5 30.2 -21.7 C 30.5 -22 30.9 -22.1 31.3 -22.1 C 32 -22.1 32.6 -21.8 33 -21.3 C 33.5 -20.9 33.7 -20.3 33.7 -19.6 C 33.7 -18.9 33.5 -18.3 33 -17.9 C 32.6 -17.4 32 -17.2 31.3 -17.2 C 30.9 -17.2 30.5 -17.3 30.2 -17.5 C 29.8 -17.7 29.5 -18 29.3 -18.4 C 29.2 -18.6 28.9 -18.7 28.6 -18.6 C 28.4 -18.4 28.3 -18.2 28.5 -17.9 Z M 39.6 -24.1 L 39.6 -24.1 L 41.4 -19.5 C 41.6 -19.1 42.1 -19.1 42.3 -19.5 L 44.2 -24.1 C 44.2 -24.4 44.1 -24.6 43.9 -24.7 C 43.7 -24.8 43.4 -24.7 43.3 -24.5 L 41.9 -20.9 L 40.4 -24.5 C 40.3 -24.7 40 -24.8 39.8 -24.7 C 39.6 -24.6 39.4 -24.4 39.6 -24.1 Z M 45.4 -24.5 L 45.4 -24.5 L 41.9 -15.7 L 38.3 -24.5 C 38.2 -24.7 37.9 -24.8 37.7 -24.7 C 37.4 -24.6 37.3 -24.4 37.4 -24.1 L 41.4 -14.3 C 41.6 -13.9 42.1 -13.9 42.3 -14.3 L 46.3 -24.1 C 46.4 -24.4 46.2 -24.6 46 -24.7 C 45.8 -24.8 45.5 -24.7 45.4 -24.5 Z M 50.3 -14.9 L 50.3 -14.9 L 50.3 -24.3 C 50.3 -24.5 50.1 -24.8 49.9 -24.8 C 49.6 -24.8 49.4 -24.5 49.4 -24.3 L 49.4 -14.9 C 49.4 -14.7 49.6 -14.5 49.9 -14.5 C 50.1 -14.5 50.3 -14.7 50.3 -14.9 Z M 48.5 -14.9 L 48.5 -14.9 L 48.5 -24.3 C 48.5 -24.5 48.3 -24.8 48 -24.8 C 47.7 -24.8 47.5 -24.5 47.5 -24.3 L 47.5 -14.9 C 47.5 -14.7 47.7 -14.5 48 -14.5 C 48.3 -14.5 48.5 -14.7 48.5 -14.9 Z M 57.9 -22.9 L 57.9 -22.9 L 54.9 -22.9 C 54.7 -22.9 54.5 -22.7 54.5 -22.4 L 54.5 -20.5 C 54.5 -20.3 54.7 -20.1 54.9 -20.1 L 57 -20.1 C 57.3 -20.1 57.5 -20.3 57.5 -20.5 C 57.5 -20.8 57.3 -21 57 -21 L 55.4 -21 L 55.4 -22 L 57.9 -22 C 58.2 -22 58.4 -22.2 58.4 -22.4 C 58.4 -22.7 58.2 -22.9 57.9 -22.9 Z M 57 -19.1 L 57 -19.1 L 54.9 -19.1 C 54.7 -19.1 54.5 -18.9 54.5 -18.7 L 54.5 -16.8 C 54.5 -16.5 54.7 -16.3 54.9 -16.3 L 57.9 -16.3 C 58.2 -16.3 58.4 -16.5 58.4 -16.8 C 58.4 -17.1 58.2 -17.3 57.9 -17.3 L 55.4 -17.3 L 55.4 -18.2 L 57 -18.2 C 57.3 -18.2 57.5 -18.4 57.5 -18.7 C 57.5 -18.9 57.3 -19.1 57 -19.1 Z M 57.9 -15.4 L 57.9 -15.4 L 53.5 -15.4 L 53.5 -23.8 L 57.9 -23.8 C 58.2 -23.8 58.4 -24 58.4 -24.3 C 58.4 -24.5 58.2 -24.8 57.9 -24.8 L 53.1 -24.8 C 52.8 -24.8 52.6 -24.5 52.6 -24.3 L 52.6 -14.9 C 52.6 -14.7 52.8 -14.5 53.1 -14.5 L 57.9 -14.5 C 58.2 -14.5 58.4 -14.7 58.4 -14.9 C 58.4 -15.2 58.2 -15.4 57.9 -15.4 Z">
    </path>
  </g>
</svg>