<svg data-v-fde0c5aa="" xmlns="http://www.w3.org/2000/svg" viewBox="0 0 300 300" class="font"><!----><defs data-v-fde0c5aa=""><!----></defs><rect data-v-fde0c5aa="" fill="#F8680C" x="0" y="0" width="300px" height="300px" class="logo-background-square"></rect><defs data-v-fde0c5aa=""><!----></defs><g data-v-fde0c5aa="" id="bea0bcfd-9551-49dc-9623-c229e31e08c3" fill="#E7E7E6" transform="matrix(3.8828097527792047,0,0,3.8828097527792047,35.65125305837261,128.2319980433434)"><path d="M9.55 10.16L9.55 10.16L9.55 4.24C9.55 3.99 9.34 3.78 9.07 3.78C8.90 3.78 8.76 3.86 8.68 3.99L6.27 7.42L3.89 3.98C3.74 3.77 3.43 3.71 3.22 3.86C3.09 3.95 3.02 4.10 3.02 4.24L3.02 4.24L3.02 10.16C3.02 10.43 3.23 10.64 3.49 10.64C3.77 10.64 3.98 10.43 3.98 10.16L3.98 5.75L5.89 8.51C5.92 8.55 5.96 8.60 6.01 8.64C6.22 8.78 6.52 8.72 6.68 8.51L8.60 5.75L8.60 10.16C8.60 10.43 8.81 10.64 9.07 10.64C9.34 10.64 9.55 10.43 9.55 10.16ZM2.07 10.16L2.07 10.16L2.07 0.67C2.07 0.41 1.86 0.20 1.60 0.20C1.33 0.20 1.12 0.41 1.12 0.67L1.12 10.16C1.12 10.43 1.33 10.64 1.60 10.64C1.86 10.64 2.07 10.43 2.07 10.16ZM11.45 10.16L11.45 10.16L11.45 0.67C11.45 0.41 11.24 0.20 10.96 0.20C10.71 0.20 10.50 0.41 10.50 0.67L10.50 10.16C10.50 10.43 10.71 10.64 10.96 10.64C11.24 10.64 11.45 10.43 11.45 10.16ZM8.86 0.39L8.86 0.39L6.27 4.10L3.71 0.39C3.56 0.18 3.25 0.13 3.04 0.28C2.83 0.43 2.79 0.73 2.93 0.94L5.89 5.18C5.92 5.24 5.96 5.28 6.01 5.31C6.22 5.47 6.52 5.42 6.68 5.19L9.65 0.94C9.79 0.73 9.74 0.43 9.53 0.28C9.31 0.13 9.02 0.18 8.86 0.39ZM23.86 3.88L23.86 3.88C23.51 2.77 22.81 1.83 21.90 1.16C20.99 0.52 19.89 0.14 18.69 0.14C11.59 0.14 11.59 10.82 18.69 10.82C19.89 10.82 20.99 10.43 21.90 9.79C22.81 9.13 23.51 8.18 23.86 7.08C23.93 6.83 23.80 6.55 23.55 6.48C23.30 6.41 23.02 6.54 22.95 6.79C22.65 7.70 22.09 8.47 21.32 9.02C20.59 9.55 19.68 9.86 18.69 9.86C12.85 9.86 12.85 1.09 18.69 1.09C19.68 1.09 20.59 1.41 21.32 1.93C22.09 2.49 22.65 3.26 22.95 4.16C23.02 4.41 23.30 4.55 23.55 4.47C23.80 4.40 23.93 4.13 23.86 3.88ZM15.81 7.17L15.81 7.17C16.10 7.69 16.52 8.12 17.02 8.43C17.53 8.71 18.10 8.88 18.69 8.88C19.63 8.88 20.47 8.50 21.08 7.87C21.67 7.25 22.05 6.41 22.05 5.47C22.05 4.54 21.67 3.70 21.08 3.08C20.47 2.46 19.63 2.09 18.69 2.09C18.10 2.09 17.53 2.24 17.02 2.53C16.52 2.83 16.10 3.26 15.81 3.78C15.67 4.02 15.75 4.31 15.97 4.44C16.21 4.56 16.49 4.48 16.62 4.24C16.84 3.88 17.15 3.57 17.51 3.36C17.86 3.15 18.26 3.04 18.69 3.04C19.36 3.04 19.96 3.32 20.38 3.75C20.83 4.19 21.10 4.80 21.10 5.47C21.10 6.16 20.83 6.78 20.38 7.21C19.96 7.66 19.36 7.92 18.69 7.92C18.26 7.92 17.85 7.80 17.51 7.59C17.15 7.39 16.84 7.07 16.62 6.71C16.49 6.47 16.21 6.40 15.97 6.52C15.75 6.66 15.67 6.93 15.81 7.17ZM35.91 3.88L35.91 3.88C35.56 2.77 34.86 1.83 33.95 1.16C33.04 0.52 31.95 0.14 30.74 0.14C23.65 0.14 23.65 10.82 30.74 10.82C31.95 10.82 33.04 10.43 33.95 9.79C34.86 9.13 35.56 8.18 35.91 7.08C35.98 6.83 35.85 6.55 35.60 6.48C35.35 6.41 35.07 6.54 35 6.79C34.71 7.70 34.15 8.47 33.38 9.02C32.65 9.55 31.74 9.86 30.74 9.86C24.91 9.86 24.91 1.09 30.74 1.09C31.74 1.09 32.65 1.41 33.38 1.93C34.15 2.49 34.71 3.26 35 4.16C35.07 4.41 35.35 4.55 35.60 4.47C35.85 4.40 35.98 4.13 35.91 3.88ZM27.86 7.17L27.86 7.17C28.15 7.69 28.57 8.12 29.08 8.43C29.58 8.71 30.16 8.88 30.74 8.88C31.68 8.88 32.52 8.50 33.14 7.87C33.73 7.25 34.10 6.41 34.10 5.47C34.10 4.54 33.73 3.70 33.14 3.08C32.52 2.46 31.68 2.09 30.74 2.09C30.16 2.09 29.58 2.24 29.08 2.53C28.57 2.83 28.15 3.26 27.86 3.78C27.72 4.02 27.80 4.31 28.03 4.44C28.27 4.56 28.55 4.48 28.67 4.24C28.90 3.88 29.20 3.57 29.57 3.36C29.92 3.15 30.31 3.04 30.74 3.04C31.42 3.04 32.02 3.32 32.44 3.75C32.89 4.19 33.15 4.80 33.15 5.47C33.15 6.16 32.89 6.78 32.44 7.21C32.02 7.66 31.42 7.92 30.74 7.92C30.31 7.92 29.90 7.80 29.57 7.59C29.20 7.39 28.90 7.07 28.67 6.71C28.55 6.47 28.27 6.40 28.03 6.52C27.80 6.66 27.72 6.93 27.86 7.17ZM38.95 0.99L38.95 0.99L40.81 5.60C40.98 5.98 41.52 5.98 41.68 5.60L43.57 0.99C43.65 0.74 43.54 0.49 43.30 0.38C43.06 0.29 42.78 0.41 42.70 0.64L41.26 4.19L39.80 0.64C39.70 0.41 39.44 0.29 39.19 0.38C38.96 0.49 38.84 0.74 38.95 0.99ZM44.81 0.64L44.81 0.64L41.26 9.38L37.69 0.64C37.59 0.41 37.32 0.29 37.09 0.38C36.83 0.49 36.74 0.74 36.82 0.99L40.81 10.78C40.98 11.17 41.51 11.17 41.68 10.78L45.67 0.99C45.77 0.74 45.65 0.49 45.42 0.38C45.19 0.29 44.91 0.41 44.81 0.64ZM49.74 10.18L49.74 10.18L49.74 0.81C49.74 0.56 49.53 0.35 49.28 0.35C49.01 0.35 48.80 0.56 48.80 0.81L48.80 10.18C48.80 10.43 49.01 10.64 49.28 10.64C49.53 10.64 49.74 10.43 49.74 10.18ZM47.87 10.18L47.87 10.18L47.87 0.81C47.87 0.56 47.66 0.35 47.40 0.35C47.14 0.35 46.93 0.56 46.93 0.81L46.93 10.18C46.93 10.43 47.14 10.64 47.40 10.64C47.66 10.64 47.87 10.43 47.87 10.18ZM57.30 2.23L57.30 2.23L54.33 2.23C54.07 2.23 53.86 2.42 53.86 2.69L53.86 4.56C53.86 4.82 54.07 5.03 54.33 5.03L56.43 5.03C56.70 5.03 56.91 4.82 56.91 4.56C56.91 4.30 56.70 4.09 56.43 4.09L54.80 4.09L54.80 3.15L57.30 3.15C57.57 3.15 57.78 2.94 57.78 2.69C57.78 2.42 57.57 2.23 57.30 2.23ZM56.43 5.96L56.43 5.96L54.33 5.96C54.07 5.96 53.86 6.17 53.86 6.43L53.86 8.30C53.86 8.55 54.07 8.76 54.33 8.76L57.30 8.76C57.57 8.76 57.78 8.55 57.78 8.30C57.78 8.04 57.57 7.83 57.30 7.83L54.80 7.83L54.80 6.90L56.43 6.90C56.70 6.90 56.91 6.69 56.91 6.43C56.91 6.17 56.70 5.96 56.43 5.96ZM57.30 9.70L57.30 9.70L52.93 9.70L52.93 1.29L57.30 1.29C57.57 1.29 57.78 1.08 57.78 0.81C57.78 0.56 57.57 0.35 57.30 0.35L52.46 0.35C52.21 0.35 52.00 0.56 52.00 0.81L52.00 10.18C52.00 10.43 52.21 10.64 52.46 10.64L57.30 10.64C57.57 10.64 57.78 10.43 57.78 10.18C57.78 9.91 57.57 9.70 57.30 9.70Z"></path></g><!----><!----></svg>