<svg xmlns="http://www.w3.org/2000/svg" viewBox="0 0 300 100" class="iconLeft">
  <rect fill="#f8680c" x="0" y="0" width="300px" height="100px"
    class="logo-background-square"></rect>
  <g id="d5efb091-4ae7-4b38-bc48-bc9f6053afb3" fill="#e7e7e6"
    transform="matrix(2.9,0,0,2.9,92.9,133.8)">
    <path
      d="M 9.3 -25 L 9.3 -25 L 9.3 -31 C 9.3 -31.2 9 -31.4 8.8 -31.4 C 8.6 -31.4 8.5 -31.3 8.4 -31.2 L 6 -27.8 L 3.6 -31.2 C 3.4 -31.4 3.1 -31.5 2.9 -31.3 C 2.8 -31.2 2.7 -31.1 2.7 -31 L 2.7 -31 L 2.7 -25 C 2.7 -24.8 2.9 -24.6 3.2 -24.6 C 3.5 -24.6 3.7 -24.8 3.7 -25 L 3.7 -29.4 L 5.6 -26.7 C 5.6 -26.6 5.7 -26.6 5.7 -26.6 C 5.9 -26.4 6.2 -26.5 6.4 -26.7 L 8.3 -29.4 L 8.3 -25 C 8.3 -24.8 8.5 -24.6 8.8 -24.6 C 9 -24.6 9.3 -24.8 9.3 -25 Z M 1.8 -25 L 1.8 -25 L 1.8 -34.5 C 1.8 -34.8 1.6 -35 1.3 -35 C 1 -35 0.8 -34.8 0.8 -34.5 L 0.8 -25 C 0.8 -24.8 1 -24.6 1.3 -24.6 C 1.6 -24.6 1.8 -24.8 1.8 -25 Z M 11.1 -25 L 11.1 -25 L 11.1 -34.5 C 11.1 -34.8 10.9 -35 10.7 -35 C 10.4 -35 10.2 -34.8 10.2 -34.5 L 10.2 -25 C 10.2 -24.8 10.4 -24.6 10.7 -24.6 C 10.9 -24.6 11.1 -24.8 11.1 -25 Z M 8.6 -34.8 L 8.6 -34.8 L 6 -31.1 L 3.4 -34.8 C 3.3 -35 3 -35.1 2.7 -34.9 C 2.5 -34.8 2.5 -34.5 2.6 -34.3 L 5.6 -30 C 5.6 -30 5.7 -29.9 5.7 -29.9 C 5.9 -29.7 6.2 -29.8 6.4 -30 L 9.4 -34.3 C 9.5 -34.5 9.4 -34.8 9.2 -34.9 C 9 -35.1 8.7 -35 8.6 -34.8 Z M 23.6 -31.3 L 23.6 -31.3 C 23.2 -32.4 22.5 -33.4 21.6 -34 C 20.7 -34.7 19.6 -35.1 18.4 -35.1 C 11.3 -35.1 11.3 -24.4 18.4 -24.4 C 19.6 -24.4 20.7 -24.8 21.6 -25.4 C 22.5 -26.1 23.2 -27 23.6 -28.1 C 23.6 -28.4 23.5 -28.7 23.3 -28.7 C 23 -28.8 22.7 -28.7 22.6 -28.4 C 22.3 -27.5 21.8 -26.7 21 -26.2 C 20.3 -25.6 19.4 -25.3 18.4 -25.3 C 12.5 -25.3 12.5 -34.1 18.4 -34.1 C 19.4 -34.1 20.3 -33.8 21 -33.3 C 21.8 -32.7 22.3 -31.9 22.6 -31 C 22.7 -30.8 23 -30.7 23.3 -30.7 C 23.5 -30.8 23.6 -31.1 23.6 -31.3 Z M 15.5 -28 L 15.5 -28 C 15.8 -27.5 16.2 -27.1 16.7 -26.8 C 17.2 -26.5 17.8 -26.3 18.4 -26.3 C 19.3 -26.3 20.2 -26.7 20.8 -27.3 C 21.4 -27.9 21.8 -28.8 21.8 -29.7 C 21.8 -30.7 21.4 -31.5 20.8 -32.1 C 20.2 -32.7 19.3 -33.1 18.4 -33.1 C 17.8 -33.1 17.2 -33 16.7 -32.7 C 16.2 -32.4 15.8 -31.9 15.5 -31.4 C 15.4 -31.2 15.5 -30.9 15.7 -30.8 C 15.9 -30.6 16.2 -30.7 16.3 -31 C 16.5 -31.3 16.8 -31.6 17.2 -31.8 C 17.6 -32.1 18 -32.2 18.4 -32.2 C 19.1 -32.2 19.7 -31.9 20.1 -31.4 C 20.5 -31 20.8 -30.4 20.8 -29.7 C 20.8 -29 20.5 -28.4 20.1 -28 C 19.7 -27.5 19.1 -27.3 18.4 -27.3 C 18 -27.3 17.6 -27.4 17.2 -27.6 C 16.8 -27.8 16.5 -28.1 16.3 -28.5 C 16.2 -28.7 15.9 -28.8 15.7 -28.7 C 15.5 -28.5 15.4 -28.3 15.5 -28 Z M 35.6 -31.3 L 35.6 -31.3 C 35.3 -32.4 34.6 -33.4 33.7 -34 C 32.7 -34.7 31.6 -35.1 30.4 -35.1 C 23.3 -35.1 23.3 -24.4 30.4 -24.4 C 31.6 -24.4 32.7 -24.8 33.7 -25.4 C 34.6 -26.1 35.3 -27 35.6 -28.1 C 35.7 -28.4 35.6 -28.7 35.3 -28.7 C 35.1 -28.8 34.8 -28.7 34.7 -28.4 C 34.4 -27.5 33.8 -26.7 33.1 -26.2 C 32.3 -25.6 31.4 -25.3 30.4 -25.3 C 24.6 -25.3 24.6 -34.1 30.4 -34.1 C 31.4 -34.1 32.3 -33.8 33.1 -33.3 C 33.8 -32.7 34.4 -31.9 34.7 -31 C 34.8 -30.8 35.1 -30.7 35.3 -30.7 C 35.6 -30.8 35.7 -31.1 35.6 -31.3 Z M 27.6 -28 L 27.6 -28 C 27.8 -27.5 28.3 -27.1 28.8 -26.8 C 29.3 -26.5 29.9 -26.3 30.4 -26.3 C 31.4 -26.3 32.2 -26.7 32.8 -27.3 C 33.4 -27.9 33.8 -28.8 33.8 -29.7 C 33.8 -30.7 33.4 -31.5 32.8 -32.1 C 32.2 -32.7 31.4 -33.1 30.4 -33.1 C 29.9 -33.1 29.3 -33 28.8 -32.7 C 28.3 -32.4 27.8 -31.9 27.6 -31.4 C 27.4 -31.2 27.5 -30.9 27.7 -30.8 C 28 -30.6 28.3 -30.7 28.4 -31 C 28.6 -31.3 28.9 -31.6 29.3 -31.8 C 29.6 -32.1 30 -32.2 30.4 -32.2 C 31.1 -32.2 31.7 -31.9 32.1 -31.4 C 32.6 -31 32.8 -30.4 32.8 -29.7 C 32.8 -29 32.6 -28.4 32.1 -28 C 31.7 -27.5 31.1 -27.3 30.4 -27.3 C 30 -27.3 29.6 -27.4 29.3 -27.6 C 28.9 -27.8 28.6 -28.1 28.4 -28.5 C 28.3 -28.7 28 -28.8 27.7 -28.7 C 27.5 -28.5 27.4 -28.3 27.6 -28 Z M 38.7 -34.2 L 38.7 -34.2 L 40.5 -29.6 C 40.7 -29.2 41.2 -29.2 41.4 -29.6 L 43.3 -34.2 C 43.3 -34.5 43.2 -34.7 43 -34.8 C 42.8 -34.9 42.5 -34.8 42.4 -34.6 L 41 -31 L 39.5 -34.6 C 39.4 -34.8 39.1 -34.9 38.9 -34.8 C 38.7 -34.7 38.5 -34.5 38.7 -34.2 Z M 44.5 -34.6 L 44.5 -34.6 L 41 -25.8 L 37.4 -34.6 C 37.3 -34.8 37 -34.9 36.8 -34.8 C 36.5 -34.7 36.4 -34.5 36.5 -34.2 L 40.5 -24.4 C 40.7 -24 41.2 -24 41.4 -24.4 L 45.4 -34.2 C 45.5 -34.5 45.3 -34.7 45.1 -34.8 C 44.9 -34.9 44.6 -34.8 44.5 -34.6 Z M 49.4 -25 L 49.4 -25 L 49.4 -34.4 C 49.4 -34.6 49.2 -34.9 49 -34.9 C 48.7 -34.9 48.5 -34.6 48.5 -34.4 L 48.5 -25 C 48.5 -24.8 48.7 -24.6 49 -24.6 C 49.2 -24.6 49.4 -24.8 49.4 -25 Z M 47.6 -25 L 47.6 -25 L 47.6 -34.4 C 47.6 -34.6 47.4 -34.9 47.1 -34.9 C 46.8 -34.9 46.6 -34.6 46.6 -34.4 L 46.6 -25 C 46.6 -24.8 46.8 -24.6 47.1 -24.6 C 47.4 -24.6 47.6 -24.8 47.6 -25 Z M 57 -33 L 57 -33 L 54 -33 C 53.8 -33 53.6 -32.8 53.6 -32.5 L 53.6 -30.6 C 53.6 -30.4 53.8 -30.2 54 -30.2 L 56.1 -30.2 C 56.4 -30.2 56.6 -30.4 56.6 -30.6 C 56.6 -30.9 56.4 -31.1 56.1 -31.1 L 54.5 -31.1 L 54.5 -32.1 L 57 -32.1 C 57.3 -32.1 57.5 -32.3 57.5 -32.5 C 57.5 -32.8 57.3 -33 57 -33 Z M 56.1 -29.2 L 56.1 -29.2 L 54 -29.2 C 53.8 -29.2 53.6 -29 53.6 -28.8 L 53.6 -26.9 C 53.6 -26.6 53.8 -26.4 54 -26.4 L 57 -26.4 C 57.3 -26.4 57.5 -26.6 57.5 -26.9 C 57.5 -27.2 57.3 -27.4 57 -27.4 L 54.5 -27.4 L 54.5 -28.3 L 56.1 -28.3 C 56.4 -28.3 56.6 -28.5 56.6 -28.8 C 56.6 -29 56.4 -29.2 56.1 -29.2 Z M 57 -25.5 L 57 -25.5 L 52.6 -25.5 L 52.6 -33.9 L 57 -33.9 C 57.3 -33.9 57.5 -34.1 57.5 -34.4 C 57.5 -34.6 57.3 -34.9 57 -34.9 L 52.2 -34.9 C 51.9 -34.9 51.7 -34.6 51.7 -34.4 L 51.7 -25 C 51.7 -24.8 51.9 -24.6 52.2 -24.6 L 57 -24.6 C 57.3 -24.6 57.5 -24.8 57.5 -25 C 57.5 -25.3 57.3 -25.5 57 -25.5 Z">
    </path>
  </g>
  <g id="ff76a560-ec5e-41bf-8f52-f1feac3877b1" stroke="none" fill="#e7e7e6"
    transform="matrix(0.6,0,0,0.6,32.8,121.8)">
    <circle cx="60.5" cy="-88.9" r="1.9"></circle>
    <circle cx="40.3" cy="-88.9" r="1.9"></circle>
    <path
      d="M 79 -162 s -6.6 11.2 -13.2 10.8 c -4.3 -3.1 -10 -4.8 -16.4 -4.8 c -6.4 0 -12.1 1.6 -16.4 4.8 c -0.1 0 -0.2 0 -0.3 0 c -6.7 0.5 -13.3 -10.8 -13.3 -10.8 s -1 13.4 7.3 19 c 0 0 0.1 0 0.1 0.1 c -0.7 2.1 -1.1 4.4 -1.1 6.9 l 5.4 34.3 c -0.7 2.7 -1.1 5.1 -1.2 7.1 C 28.8 -92.8 28.2 -90.8 28.2 -88.7 c 0 6 4.9 10.9 10.9 10.9 h 20.7 c 6 0 10.9 -4.9 10.9 -10.9 c 0 -2.2 -0.7 -4.3 -1.8 -6.1 c -0.1 -2 -0.5 -4.2 -1.1 -6.9 l 5.4 -34.3 c 0 -2.6 -0.4 -5 -1.2 -7.1 c 8.1 -5.7 7.1 -18.8 7.1 -18.8 z M 31.4 -129.6 c 0 -1.3 1 -2.3 2.3 -2.3 s 2.3 1 2.3 2.3 c 0 1.3 -1 2.3 -2.3 2.3 s -2.3 -1 -2.3 -2.3 z m 28.8 46.7 H 39.6 C 36.6 -83.3 34.4 -85.8 34.4 -88.8 C 34.4 -91.9 36.6 -94.4 39.6 -94.8 h 20.6 C 63.2 -94.4 65.5 -91.9 65.5 -88.8 C 65.5 -85.8 63.2 -83.3 60.2 -82.9 z m 3.9 -44.4 C 62.9 -127.3 61.8 -128.3 61.8 -129.6 C 61.8 -130.9 62.9 -131.9 64.1 -131.9 C 65.4 -131.9 66.4 -130.9 66.4 -129.6 C 66.4 -128.3 65.4 -127.3 64.1 -127.3 z">
    </path>
    <path
      d="M 80.5 -145.1 c -1.2 0 -3.5 0.7 -6 1.7 c 0.4 1.2 0.7 2.5 0.9 3.8 c 1.8 -0.6 3.7 -1.2 4.4 -1.2 C 80.8 -140.8 81.8 -140.3 82.3 -139.4 C 82.8 -138.5 82.8 -137.5 82.3 -136.6 C 81.8 -135.7 80.8 -135.2 79.8 -135.2 c -0.7 0 -2.4 -0.5 -4.2 -1.1 c 0 0.1 0 0.2 0 0.3 v 0.2 l 0 0.2 l -0.5 3.2 c 2.3 0.8 4.3 1.4 5.4 1.4 C 84.4 -131 87.5 -134.1 87.5 -138 C 87.5 -141.9 84.4 -145 80.5 -145 z M 23 -135.9 v -0.2 c 0 -0.1 0 -0.3 0 -0.4 c -1.8 0.6 -3.6 1.2 -4.3 1.2 C 17.2 -135.3 15.9 -136.6 15.9 -138.1 C 15.9 -139.6 17.2 -140.9 18.7 -140.9 c 0.7 0 2.7 0.6 4.6 1.3 c 0.2 -1.3 0.5 -2.6 0.9 -3.8 c -2.6 -1 -5 -1.7 -6.2 -1.7 C 14.2 -145.1 11 -142 11 -138.1 C 11 -134.2 14.2 -131.1 18 -131.1 c 1.1 0 3.2 -0.6 5.6 -1.5 l -0.5 -3.2 l 0 -0.2 z">
    </path>
  </g>
</svg>